HIERARCHY
ROOT Hips
{
    OFFSET 0.000000 0.000000 0.000000
    CHANNELS 6 Xposition Yposition Zposition Zrotation Xrotation Yrotation
    JOINT Spine
    {
        OFFSET -0.000000 0.076824 0.000000
        CHANNELS 3 Zrotation Xrotation Yrotation
        JOINT Spine1
        {
            OFFSET -0.000000 0.205639 0.000000
            CHANNELS 3 Zrotation Xrotation Yrotation
            JOINT Neck
            {
                OFFSET -0.000000 0.204794 0.018618
                CHANNELS 3 Zrotation Xrotation Yrotation
                JOINT Head
                {
                    OFFSET -0.000000 0.131164 -0.018738
                    CHANNELS 3 Zrotation Xrotation Yrotation
                    End Site
                    {
                        OFFSET -0.000000 0.187377 0.000000
                    }
                }
            }
            JOINT LeftShoulder
            {
                OFFSET 0.037892 0.189814 -0.002396
                CHANNELS 3 Zrotation Xrotation Yrotation
                JOINT LeftArm
                {
                    OFFSET 0.104721 0.000000 0.000000
                    CHANNELS 3 Zrotation Xrotation Yrotation
                    JOINT LeftForeArm
                    {
                        OFFSET 0.316555 0.000000 0.000000
                        CHANNELS 3 Zrotation Xrotation Yrotation
                        JOINT LeftHand
                        {
                            OFFSET 0.270628 0.000000 0.000000
                            CHANNELS 3 Zrotation Xrotation Yrotation
                            JOINT LeftHandThumb1
                            {
                                OFFSET 0.023422 -0.014053 0.046844
                                CHANNELS 3 Zrotation Xrotation Yrotation
                                JOINT LeftHandThumb2
                                {
                                    OFFSET 0.028107 0.000000 0.000000
                                    CHANNELS 3 Zrotation Xrotation Yrotation
                                    JOINT LeftHandThumb3
                                    {
                                        OFFSET 0.028107 0.000000 0.000000
                                        CHANNELS 3 Zrotation Xrotation Yrotation
                                        End Site
                                        {
                                            OFFSET 0.026333 0.000000 0.000000
                                        }
                                    }
                                }
                            }
                            JOINT LeftHandIndex1
                            {
                                OFFSET 0.084320 0.000000 0.032791
                                CHANNELS 3 Zrotation Xrotation Yrotation
                                JOINT LeftHandIndex2
                                {
                                    OFFSET 0.046844 0.000000 0.000000
                                    CHANNELS 3 Zrotation Xrotation Yrotation
                                    JOINT LeftHandIndex3
                                    {
                                        OFFSET 0.023422 0.000000 0.000000
                                        CHANNELS 3 Zrotation Xrotation Yrotation
                                        End Site
                                        {
                                            OFFSET 0.021944 0.000000 0.000000
                                        }
                                    }
                                }
                            }
                            JOINT LeftHandMiddle1
                            {
                                OFFSET 0.084320 0.000000 0.010868
                                CHANNELS 3 Zrotation Xrotation Yrotation
                                JOINT LeftHandMiddle2
                                {
                                    OFFSET 0.051529 0.000000 0.000000
                                    CHANNELS 3 Zrotation Xrotation Yrotation
                                    JOINT LeftHandMiddle3
                                    {
                                        OFFSET 0.028107 0.000000 0.000000
                                        CHANNELS 3 Zrotation Xrotation Yrotation
                                        End Site
                                        {
                                            OFFSET 0.026333 0.000000 0.000000
                                        }
                                    }
                                }
                            }
                            JOINT LeftHandRing1
                            {
                                OFFSET 0.079635 0.000000 -0.010868
                                CHANNELS 3 Zrotation Xrotation Yrotation
                                JOINT LeftHandRing2
                                {
                                    OFFSET 0.046844 0.000000 0.000000
                                    CHANNELS 3 Zrotation Xrotation Yrotation
                                    JOINT LeftHandRing3
                                    {
                                        OFFSET 0.023422 0.000000 0.000000
                                        CHANNELS 3 Zrotation Xrotation Yrotation
                                        End Site
                                        {
                                            OFFSET 0.021944 0.000000 0.000000
                                        }
                                    }
                                }
                            }
                            JOINT LeftHandPinky1
                            {
                                OFFSET 0.074951 0.000000 -0.032791
                                CHANNELS 3 Zrotation Xrotation Yrotation
                                JOINT LeftHandPinky2
                                {
                                    OFFSET 0.037475 0.000000 0.000000
                                    CHANNELS 3 Zrotation Xrotation Yrotation
                                    JOINT LeftHandPinky3
                                    {
                                        OFFSET 0.018738 0.000000 0.000000
                                        CHANNELS 3 Zrotation Xrotation Yrotation
                                        End Site
                                        {
                                            OFFSET 0.017555 0.000000 0.000000
                                        }
                                    }
                                }
                            }
                        }
                    }
                }
            }
            JOINT RightShoulder
            {
                OFFSET -0.036963 0.189814 -0.002396
                CHANNELS 3 Zrotation Xrotation Yrotation
                JOINT RightArm
                {
                    OFFSET -0.104721 0.000000 0.000000
                    CHANNELS 3 Zrotation Xrotation Yrotation
                    JOINT RightForeArm
                    {
                        OFFSET -0.316555 0.000000 0.000000
                        CHANNELS 3 Zrotation Xrotation Yrotation
                        JOINT RightHand
                        {
                            OFFSET -0.270628 0.000000 0.000000
                            CHANNELS 3 Zrotation Xrotation Yrotation
                            JOINT RightHandThumb1
                            {
                                OFFSET -0.023422 -0.014053 0.046844
                                CHANNELS 3 Zrotation Xrotation Yrotation
                                JOINT RightHandThumb2
                                {
                                    OFFSET -0.028107 0.000000 0.000000
                                    CHANNELS 3 Zrotation Xrotation Yrotation
                                    JOINT RightHandThumb3
                                    {
                                        OFFSET -0.028107 0.000000 0.000000
                                        CHANNELS 3 Zrotation Xrotation Yrotation
                                        End Site
                                        {
                                            OFFSET -0.026333 0.000000 0.000000
                                        }
                                    }
                                }
                            }
                            JOINT RightHandIndex1
                            {
                                OFFSET -0.084320 0.000000 0.032791
                                CHANNELS 3 Zrotation Xrotation Yrotation
                                JOINT RightHandIndex2
                                {
                                    OFFSET -0.046844 0.000000 0.000000
                                    CHANNELS 3 Zrotation Xrotation Yrotation
                                    JOINT RightHandIndex3
                                    {
                                        OFFSET -0.023422 0.000000 0.000000
                                        CHANNELS 3 Zrotation Xrotation Yrotation
                                        End Site
                                        {
                                            OFFSET -0.021944 0.000000 0.000000
                                        }
                                    }
                                }
                            }
                            JOINT RightHandMiddle1
                            {
                                OFFSET -0.084320 0.000000 0.010868
                                CHANNELS 3 Zrotation Xrotation Yrotation
                                JOINT RightHandMiddle2
                                {
                                    OFFSET -0.051529 0.000000 0.000000
                                    CHANNELS 3 Zrotation Xrotation Yrotation
                                    JOINT RightHandMiddle3
                                    {
                                        OFFSET -0.028107 0.000000 0.000000
                                        CHANNELS 3 Zrotation Xrotation Yrotation
                                        End Site
                                        {
                                            OFFSET -0.026333 0.000000 0.000000
                                        }
                                    }
                                }
                            }
                            JOINT RightHandRing1
                            {
                                OFFSET -0.079635 0.000000 -0.010868
                                CHANNELS 3 Zrotation Xrotation Yrotation
                                JOINT RightHandRing2
                                {
                                    OFFSET -0.046844 0.000000 0.000000
                                    CHANNELS 3 Zrotation Xrotation Yrotation
                                    JOINT RightHandRing3
                                    {
                                        OFFSET -0.023422 0.000000 0.000000
                                        CHANNELS 3 Zrotation Xrotation Yrotation
                                        End Site
                                        {
                                            OFFSET -0.021944 0.000000 0.000000
                                        }
                                    }
                                }
                            }
                            JOINT RightHandPinky1
                            {
                                OFFSET -0.074951 0.000000 -0.032791
                                CHANNELS 3 Zrotation Xrotation Yrotation
                                JOINT RightHandPinky2
                                {
                                    OFFSET -0.037475 0.000000 0.000000
                                    CHANNELS 3 Zrotation Xrotation Yrotation
                                    JOINT RightHandPinky3
                                    {
                                        OFFSET -0.018738 0.000000 0.000000
                                        CHANNELS 3 Zrotation Xrotation Yrotation
                                        End Site
                                        {
                                            OFFSET -0.017555 0.000000 0.000000
                                        }
                                    }
                                }
                            }
                        }
                    }
                }
            }
        }
    }
    JOINT LeftUpLeg
    {
        OFFSET 0.093688 0.000000 0.000000
        CHANNELS 3 Zrotation Xrotation Yrotation
        JOINT LeftLeg
        {
            OFFSET -0.000000 -0.377687 0.000000
            CHANNELS 3 Zrotation Xrotation Yrotation
            JOINT LeftFoot
            {
                OFFSET -0.000000 -0.399231 0.000000
                CHANNELS 3 Zrotation Xrotation Yrotation
                JOINT LeftToeBase
                {
                    OFFSET -0.000000 -0.060897 0.140533
                    CHANNELS 3 Zrotation Xrotation Yrotation
                    End Site
                    {
                        OFFSET -0.000000 0.000000 0.037475
                    }
                }
            }
        }
    }
    JOINT RightUpLeg
    {
        OFFSET -0.093688 0.000000 0.000000
        CHANNELS 3 Zrotation Xrotation Yrotation
        JOINT RightLeg
        {
            OFFSET -0.000000 -0.377687 0.000000
            CHANNELS 3 Zrotation Xrotation Yrotation
            JOINT RightFoot
            {
                OFFSET -0.000000 -0.399231 0.000000
                CHANNELS 3 Zrotation Xrotation Yrotation
                JOINT RightToeBase
                {
                    OFFSET -0.000000 -0.060897 0.140533
                    CHANNELS 3 Zrotation Xrotation Yrotation
                    End Site
                    {
                        OFFSET -0.000000 0.000000 0.037475
                    }
                }
            }
        }
    }
}
MOTION
Frames:    4
Frame Time:    0.040000
-0.220488    0.811131    0.709981    -5.693402    0.274278    60.368999    1.003328    -5.865793    11.431518    -7.796794    2.946995    3.996632    7.511126    20.501245    2.109445    3.300101    -0.688916    2.990713    12.620105    2.327441    -10.550042    -31.636116    34.221882    -45.892124    60.575211    -28.014755    -53.434830    14.067596    -8.990896    -21.058241    -34.112282    -18.051668    -59.185371    0.000000    0.000000    0.000000    0.000000    0.000000    0.000000    3.688864    0.000000    -0.000000    0.000000    0.000000    0.000000    0.000000    0.000000    0.000000    5.050603    0.282989    2.504714    0.000000    0.000000    0.000000    0.000000    0.000000    0.000000    6.398734    0.625134    5.002108    0.000000    0.000000    0.000000    0.000000    0.000000    0.000000    7.770891    1.038636    7.566272    0.000000    0.000000    0.000000    0.000000    0.000000    0.000000    -7.760339    -0.805585    4.207103    1.498625    18.858469    75.237404    -38.184193    -34.817291    34.393002    -17.085115    11.892605    -13.575219    31.125324    1.677502    29.744452    0.000000    0.000000    0.000000    0.000000    0.000000    0.000000    89.999992    39.999996    0.000000    110.000000    0.000000    -0.000000    80.000000    0.000000    -0.000000    58.536102    27.213860    7.801219    76.665703    0.000000    -0.000000    55.082844    0.000000    -0.000000    31.620705    12.896694    7.225642    43.331394    0.000000    -0.000000    30.165697    0.000000    -0.000000    4.493485    0.000000    -0.000000    8.986971    0.000000    -0.000000    4.493485    0.000000    -0.000000    17.518646    -39.685532    8.719816    2.613348    45.628620    8.476461    -10.119485    -12.732084    -10.797644    0.504461    5.228589    -0.901386    -11.378085    15.415717    -1.397191    5.922416    7.769194    -6.444271    6.165999    -23.961664    -8.422112    1.075212    -2.619781    -4.543844    
-0.220673    0.810958    0.706252    -5.238202    0.013434    60.773636    1.308462    -5.965239    11.175437    -7.476183    2.769688    3.885813    7.425818    20.152617    2.158889    3.060042    -0.816722    2.981217    12.726257    2.036122    -10.622728    -31.208542    33.825058    -46.191425    59.951786    -27.775583    -54.403008    13.917935    -9.994122    -21.429419    -34.112282    -18.051668    -59.185371    0.000000    0.000000    0.000000    0.000000    0.000000    0.000000    1.319528    0.000000    -0.000000    0.000000    0.000000    0.000000    0.000000    0.000000    0.000000    3.149546    0.208032    2.369346    0.000000    0.000000    0.000000    0.000000    0.000000    0.000000    4.969450    0.491424    4.730905    0.000000    0.000000    0.000000    0.000000    0.000000    0.000000    6.830769    0.861414    7.153510    0.000000    0.000000    0.000000    0.000000    0.000000    0.000000    -7.887977    -1.069676    4.093156    1.514743    18.719007    75.471008    -36.247971    -36.172653    36.008263    -18.328053    15.347520    -13.639895    33.257095    3.263723    29.827169    0.000000    0.000000    0.000000    0.000000    0.000000    0.000000    89.999992    39.999996    0.000000    110.000000    0.000000    -0.000000    80.000000    0.000000    -0.000000    59.288448    27.193539    7.600024    78.002342    0.000000    -0.000000    55.751163    0.000000    -0.000000    33.006096    12.931693    7.041523    46.004681    0.000000    -0.000000    31.502338    0.000000    -0.000000    6.518696    0.000000    -0.000000    13.037394    0.000000    -0.000000    6.518696    0.000000    -0.000000    17.281145    -39.383335    9.445379    3.037112    45.312908    8.340172    -10.158888    -12.070951    -11.566330    0.876788    6.838980    -1.695926    -11.490267    15.768983    -1.352946    5.972754    8.055132    -6.544270    5.912172    -24.096607    -8.637135    1.125934    -2.654117    -4.770374    
-0.219398    0.811564    0.702584    -4.524168    0.151236    61.216110    1.228930    -6.103179    11.076047    -7.414761    2.852216    3.857340    7.276382    20.208284    2.092092    3.127519    -0.913163    2.922745    12.785484    1.828947    -10.651976    -30.446966    33.901520    -47.007751    60.065331    -27.255529    -54.023964    14.243954    -8.916676    -22.077120    -34.112282    -18.051668    -59.185371    0.000000    0.000000    0.000000    0.000000    0.000000    0.000000    3.788738    0.000000    -0.000000    0.000000    0.000000    0.000000    0.000000    0.000000    0.000000    4.933878    0.277104    2.588932    0.000000    0.000000    0.000000    0.000000    0.000000    0.000000    6.065381    0.605594    5.171916    0.000000    0.000000    0.000000    0.000000    0.000000    0.000000    7.214565    0.996944    7.826089    0.000000    0.000000    0.000000    0.000000    0.000000    0.000000    -7.812549    -1.229889    3.864773    1.952547    18.549034    75.456619    -36.649738    -34.774944    35.721577    -18.142548    14.394612    -13.764779    32.911011    2.976337    29.885277    0.000000    0.000000    0.000000    0.000000    0.000000    0.000000    89.999992    39.999996    0.000000    110.000000    0.000000    -0.000000    80.000000    0.000000    -0.000000    58.967228    27.202148    7.685789    77.431519    0.000000    -0.000000    55.465755    0.000000    -0.000000    32.414474    12.916875    7.120031    44.863033    0.000000    -0.000000    30.931520    0.000000    -0.000000    5.653814    0.000000    -0.000000    11.307629    0.000000    -0.000000    5.653814    0.000000    -0.000000    16.451693    -38.739098    10.951118    4.239431    44.677113    6.683805    -10.396411    -11.661844    -12.321391    1.125989    7.115155    -2.295294    -12.026942    16.177952    -1.752120    5.817218    8.411916    -6.526140    5.777551    -23.986917    -8.544959    1.187466    -2.424914    -5.015627    
-0.218754    0.812298    0.699042    -3.938779    0.312569    61.936932    1.245903    -6.145424    10.887860    -7.600711    2.864166    3.799571    7.075851    20.782665    1.956730    3.297562    -1.074442    2.843844    13.025364    1.836581    -10.924329    -30.060471    33.909706    -47.464779    60.384342    -27.270515    -53.751095    13.779837    -10.899904    -22.383741    -34.112282    -18.051668    -59.185371    0.000000    0.000000    0.000000    0.000000    0.000000    0.000000    0.233231    0.000000    -0.000000    0.000000    0.000000    0.000000    0.000000    0.000000    0.000000    2.163948    0.184473    2.551794    0.000000    0.000000    0.000000    0.000000    0.000000    0.000000    4.084580    0.454604    5.095983    0.000000    0.000000    0.000000    0.000000    0.000000    0.000000    6.048979    0.821629    7.706440    0.000000    0.000000    0.000000    0.000000    0.000000    0.000000    -7.856694    -1.382052    3.757929    2.150997    18.726990    75.469376    -37.029533    -34.347649    35.420784    -17.410547    13.593363    -14.408477    31.834862    2.768609    28.534096    0.000000    0.000000    0.000000    0.000000    0.000000    0.000000    89.999992    39.999996    0.000000    110.000000    0.000000    -0.000000    80.000000    0.000000    -0.000000    59.118279    27.198080    7.645429    77.699921    0.000000    -0.000000    55.599968    0.000000    -0.000000    32.692669    12.923869    7.083095    45.399830    0.000000    -0.000000    31.199917    0.000000    -0.000000    6.060487    0.000000    -0.000000    12.120973    0.000000    -0.000000    6.060487    0.000000    -0.000000    15.395368    -38.424786    9.992949    3.487437    44.218754    7.152429    -9.777429    -11.160387    -11.955115    1.419723    7.254580    -3.017953    -12.383256    16.646353    -2.220617    5.633444    8.441366    -6.816502    5.840458    -23.311951    -8.499931    1.174981    -1.879284    -4.903043    
